<svg width="1136" height="300" viewBox="0 0 1136 300" xmlns="http://www.w3.org/2000/svg"><rect x="0" y="8" width="266" height="136" rx="7" fill="#E1F5EE" stroke="#0F6E56" stroke-width="1" /><text x="16" y="40" fill="#0F6E56" font-size="13" font-family="JetBrains Mono" letter-spacing="1.4">INPUTS</text><text x="16" y="72" fill="#0B1F1A" font-size="14" font-family="Inter">audio · transcript</text><text x="16" y="96" fill="#0B1F1A" font-size="14" font-family="Inter">role image</text><rect x="0" y="156" width="266" height="136" rx="7" fill="#E1F5EE" stroke="#0F6E56" stroke-width="1" /><text x="16" y="188" fill="#0F6E56" font-size="13" font-family="JetBrains Mono" letter-spacing="1.4">GEMINI LIVE</text><text x="16" y="220" fill="#0B1F1A" font-size="14" font-family="Inter">full duplex,</text><text x="16" y="244" fill="#0B1F1A" font-size="14" font-family="Inter">interruptible transport</text><rect x="290" y="8" width="266" height="136" rx="7" fill="#E1F5EE" stroke="#0F6E56" stroke-width="1" /><text x="306" y="40" fill="#0F6E56" font-size="13" font-family="JetBrains Mono" letter-spacing="1.4">TOOL DISPATCHER</text><text x="306" y="72" fill="#0B1F1A" font-size="14" font-family="Inter">manifest · validate</text><text x="306" y="96" fill="#0B1F1A" font-size="14" font-family="Inter">dedupe · supersede</text><rect x="290" y="156" width="266" height="136" rx="7" fill="#E1F5EE" stroke="#0F6E56" stroke-width="1" /><text x="306" y="188" fill="#0F6E56" font-size="13" font-family="JetBrains Mono" letter-spacing="1.4">PLAN REVISION</text><text x="306" y="220" fill="#0B1F1A" font-size="14" font-family="Inter">filter_fingerprint</text><text x="306" y="244" fill="#0B1F1A" font-size="14" font-family="Inter">+ 4 branch fingerprints</text><rect x="580" y="8" width="266" height="136" rx="7" fill="#E1F5EE" stroke="#0F6E56" stroke-width="1" /><text x="596" y="40" fill="#0F6E56" font-size="13" font-family="JetBrains Mono" letter-spacing="1.4">BRANCH EXECUTOR</text><text x="596" y="72" fill="#0B1F1A" font-size="14" font-family="Inter">reuse · preserve</text><text x="596" y="96" fill="#0B1F1A" font-size="14" font-family="Inter">cancel · start</text><rect x="580" y="156" width="266" height="136" rx="7" fill="#FFFFFF" stroke="#97C459" stroke-width="2.5" /><text x="596" y="188" fill="#0F6E56" font-size="13" font-family="JetBrains Mono" letter-spacing="1.4">HYBRID RETRIEVAL</text><text x="596" y="220" fill="#0B1F1A" font-size="14" font-family="Inter">one shared eligibility CTE,</text><text x="596" y="244" fill="#0B1F1A" font-size="14" font-family="Inter">inlined into every branch</text><rect x="870" y="8" width="266" height="136" rx="7" fill="#E1F5EE" stroke="#0F6E56" stroke-width="1" /><text x="886" y="40" fill="#0F6E56" font-size="13" font-family="JetBrains Mono" letter-spacing="1.4">FUSION</text><text x="886" y="72" fill="#0B1F1A" font-size="14" font-family="Inter">RRF → rerank →</text><text x="886" y="96" fill="#0B1F1A" font-size="14" font-family="Inter">diversity</text><rect x="870" y="156" width="266" height="136" rx="7" fill="#E1F5EE" stroke="#0F6E56" stroke-width="1" /><text x="886" y="188" fill="#0F6E56" font-size="13" font-family="JetBrains Mono" letter-spacing="1.4">STATE + PROTOCOL</text><text x="886" y="220" fill="#0B1F1A" font-size="14" font-family="Inter">StateSnapshot → Journal</text><text x="886" y="244" fill="#0B1F1A" font-size="14" font-family="Inter">→ ProtocolAdapter</text><path d="M270 76 L286 76" stroke="#0F6E56" stroke-width="2" /><path d="M286 76 L279 72 L279 80 Z" fill="#0F6E56" /><path d="M270 224 L286 224" stroke="#0F6E56" stroke-width="2" /><path d="M286 224 L279 220 L279 228 Z" fill="#0F6E56" /><path d="M560 76 L576 76" stroke="#0F6E56" stroke-width="2" /><path d="M576 76 L569 72 L569 80 Z" fill="#0F6E56" /><path d="M560 224 L576 224" stroke="#0F6E56" stroke-width="2" /><path d="M576 224 L569 220 L569 228 Z" fill="#0F6E56" /><path d="M850 76 L866 76" stroke="#0F6E56" stroke-width="2" /><path d="M866 76 L859 72 L859 80 Z" fill="#0F6E56" /><path d="M850 224 L866 224" stroke="#0F6E56" stroke-width="2" /><path d="M866 224 L859 220 L859 228 Z" fill="#0F6E56" /><path d="M133 148 L133 152" stroke="#0F6E56" stroke-width="2" /><path d="M133 152 L129 145 L137 145 Z" fill="#0F6E56" /><path d="M423 148 L423 152" stroke="#0F6E56" stroke-width="2" /><path d="M423 152 L419 145 L427 145 Z" fill="#0F6E56" /><path d="M713 148 L713 152" stroke="#0F6E56" stroke-width="2" /><path d="M713 152 L709 145 L717 145 Z" fill="#0F6E56" /><path d="M1003 148 L1003 152" stroke="#0F6E56" stroke-width="2" /><path d="M1003 152 L999 145 L1007 145 Z" fill="#0F6E56" /></svg>